<mxfile host="app.diagrams.net" modified="2023-07-06T14:31:35.169Z" agent="Mozilla/5.0 (Windows NT 10.0; Win64; x64) AppleWebKit/537.36 (KHTML, like Gecko) Chrome/114.0.0.0 Safari/537.36" etag="Rd9GX-2vFhpNoAs1-tSn" version="21.6.1" type="github">
  <diagram name="Halaman-1" id="N3lFzF_QxEheowapjdO8">
    <mxGraphModel dx="4387" dy="490" grid="1" gridSize="7" guides="1" tooltips="1" connect="1" arrows="1" fold="1" page="1" pageScale="1" pageWidth="1169" pageHeight="827" background="none" math="0" shadow="0">
      <root>
        <mxCell id="0" />
        <mxCell id="1" parent="0" />
        <mxCell id="cxdvPk_amLAOKnpy7xhZ-26" style="edgeStyle=orthogonalEdgeStyle;rounded=0;orthogonalLoop=1;jettySize=auto;html=1;exitX=0.5;exitY=1;exitDx=0;exitDy=0;exitPerimeter=0;entryX=0.5;entryY=0;entryDx=0;entryDy=0;" edge="1" source="cxdvPk_amLAOKnpy7xhZ-27" target="cxdvPk_amLAOKnpy7xhZ-29" parent="1">
          <mxGeometry relative="1" as="geometry" />
        </mxCell>
        <mxCell id="cxdvPk_amLAOKnpy7xhZ-27" value="Mulai" style="strokeWidth=2;html=1;shape=mxgraph.flowchart.start_1;whiteSpace=wrap;" vertex="1" parent="1">
          <mxGeometry x="-3408.5" y="42" width="97" height="49" as="geometry" />
        </mxCell>
        <mxCell id="cxdvPk_amLAOKnpy7xhZ-36" style="edgeStyle=orthogonalEdgeStyle;rounded=0;orthogonalLoop=1;jettySize=auto;html=1;exitX=0.5;exitY=1;exitDx=0;exitDy=0;entryX=0.5;entryY=0;entryDx=0;entryDy=0;entryPerimeter=0;" edge="1" parent="1" source="cxdvPk_amLAOKnpy7xhZ-29" target="cxdvPk_amLAOKnpy7xhZ-34">
          <mxGeometry relative="1" as="geometry" />
        </mxCell>
        <mxCell id="cxdvPk_amLAOKnpy7xhZ-29" value="Studi Literatur dan Observasi" style="rounded=1;whiteSpace=wrap;html=1;absoluteArcSize=1;arcSize=14;strokeWidth=2;" vertex="1" parent="1">
          <mxGeometry x="-3437" y="136" width="154" height="63" as="geometry" />
        </mxCell>
        <mxCell id="cxdvPk_amLAOKnpy7xhZ-35" style="edgeStyle=orthogonalEdgeStyle;rounded=0;orthogonalLoop=1;jettySize=auto;html=1;exitX=1;exitY=0.5;exitDx=0;exitDy=0;exitPerimeter=0;entryX=1;entryY=0.5;entryDx=0;entryDy=0;" edge="1" parent="1" source="cxdvPk_amLAOKnpy7xhZ-34" target="cxdvPk_amLAOKnpy7xhZ-29">
          <mxGeometry relative="1" as="geometry">
            <Array as="points">
              <mxPoint x="-3248" y="281" />
              <mxPoint x="-3248" y="168" />
            </Array>
          </mxGeometry>
        </mxCell>
        <mxCell id="cxdvPk_amLAOKnpy7xhZ-38" style="edgeStyle=orthogonalEdgeStyle;rounded=0;orthogonalLoop=1;jettySize=auto;html=1;exitX=0.5;exitY=1;exitDx=0;exitDy=0;exitPerimeter=0;entryX=0.5;entryY=0;entryDx=0;entryDy=0;" edge="1" parent="1" source="cxdvPk_amLAOKnpy7xhZ-34" target="cxdvPk_amLAOKnpy7xhZ-37">
          <mxGeometry relative="1" as="geometry" />
        </mxCell>
        <mxCell id="cxdvPk_amLAOKnpy7xhZ-34" value="Sesuai?" style="strokeWidth=2;html=1;shape=mxgraph.flowchart.decision;whiteSpace=wrap;" vertex="1" parent="1">
          <mxGeometry x="-3410" y="231" width="100" height="100" as="geometry" />
        </mxCell>
        <mxCell id="cxdvPk_amLAOKnpy7xhZ-37" value="Pengumpulan Data" style="rounded=1;whiteSpace=wrap;html=1;absoluteArcSize=1;arcSize=14;strokeWidth=2;" vertex="1" parent="1">
          <mxGeometry x="-3437" y="378" width="154" height="63" as="geometry" />
        </mxCell>
      </root>
    </mxGraphModel>
  </diagram>
</mxfile>
